M48
; DRILL file KiCad 10.0.1 date 2026-05-28T21:49:48
; FORMAT={-:-/ absolute / metric / decimal}
; #@! TF.CreationDate,2026-05-28T21:49:48+08:00
; #@! TF.GenerationSoftware,Kicad,Pcbnew,10.0.1
; #@! TF.FileFunction,Plated,1,2,PTH
FMAT,2
METRIC
; #@! TA.AperFunction,Plated,PTH,ViaDrill
T1C0.300
; #@! TA.AperFunction,Plated,PTH,ComponentDrill
T2C0.500
; #@! TA.AperFunction,Plated,PTH,ComponentDrill
T3C0.600
; #@! TA.AperFunction,Plated,PTH,ComponentDrill
T4C0.800
; #@! TA.AperFunction,Plated,PTH,ComponentDrill
T5C1.000
; #@! TA.AperFunction,Plated,PTH,ComponentDrill
T6C1.500
; #@! TA.AperFunction,Plated,PTH,ComponentDrill
T7C3.200
%
G90
G05
T1
X95.3Y-123.0
X95.5Y-74.0
X96.5Y-82.75
X98.5Y-116.0
X98.5Y-126.25
X99.0Y-74.0
X99.5Y-94.5
X99.75Y-91.5
X99.75Y-123.3
X100.25Y-80.75
X100.5Y-101.0
X101.5Y-88.0
X101.75Y-108.4
X102.75Y-77.2
X102.75Y-126.25
X102.85Y-122.2
X102.9Y-124.15
X102.901Y-73.65
X103.0Y-70.75
X103.5Y-116.0
X103.5Y-120.5
X103.6Y-74.85
X103.6Y-123.4
X103.625Y-76.375
X104.25Y-71.6
X104.4Y-94.6
X104.5Y-91.75
X104.6Y-120.6
X105.25Y-116.0
X105.55Y-122.8
X105.75Y-100.75
X107.75Y-73.25
X108.0Y-84.0
X108.2Y-61.3
X108.25Y-91.75
X109.25Y-127.75
X109.75Y-99.25
X109.75Y-108.9
X111.5Y-121.2
X111.5Y-125.1
X113.0Y-128.65
X113.5Y-70.5
X114.0Y-81.5
X114.1Y-119.4
X115.5Y-87.0
X116.5Y-115.5
X118.5Y-106.75
X118.5Y-114.75
X119.5Y-120.5
X119.7Y-93.1
X119.75Y-101.25
X119.75Y-103.5
X120.0Y-70.0
X120.1Y-118.5
X120.25Y-117.5
X121.0Y-90.0
X121.0Y-102.0
X121.25Y-75.5
X121.6Y-107.75
X122.25Y-98.0
X122.5Y-125.0
X123.5Y-94.5
X124.275Y-96.5
X124.5Y-98.0
X124.537Y-118.5
X124.762Y-121.7
X125.1Y-70.0
X125.4Y-119.0
X125.5Y-91.5
X125.5Y-105.75
X125.5Y-110.0
X126.1Y-88.1
X126.75Y-128.5
X127.0Y-102.0
X127.0Y-112.75
X127.0Y-117.5
X127.9Y-95.9
X127.9Y-107.75
X128.0Y-115.5
X128.25Y-119.25
X128.25Y-121.0
X129.0Y-86.0
X129.5Y-70.75
X129.5Y-94.75
X130.25Y-102.75
X130.5Y-126.0
X131.0Y-95.75
X131.1Y-67.1
X131.25Y-128.5
X131.5Y-93.7
X131.5Y-114.0
X131.6Y-89.75
X131.75Y-86.75
X132.0Y-134.5
X132.5Y-117.0
X132.5Y-121.0
X132.75Y-123.5
X133.45Y-72.25
X133.55Y-102.25
X133.75Y-112.75
X134.0Y-60.0
X134.75Y-72.25
X135.595Y-126.345
X135.75Y-112.75
X135.75Y-124.25
X136.0Y-78.0
X136.225Y-88.975
X136.25Y-91.0
X136.3Y-95.8
X136.325Y-98.265
X136.6Y-85.2
X136.75Y-70.0
X137.375Y-88.45
X137.4Y-99.15
X137.475Y-115.0
X137.6Y-81.6
X137.7Y-79.9
X138.0Y-93.9
X138.5Y-90.4
X138.8Y-76.9
X138.8Y-85.3
X139.45Y-89.975
X139.475Y-95.7
X139.5Y-87.5
X139.85Y-98.8
X140.0Y-65.0
X140.0Y-70.0
X140.0Y-111.775
X140.2Y-89.25
X140.25Y-113.75
X140.4Y-85.3
X141.0Y-78.0
X141.0Y-79.9
X141.0Y-134.5
X141.4Y-99.0
X142.2Y-91.9
X142.2Y-94.5
X142.9Y-86.25
X143.25Y-70.0
X143.5Y-86.75
X143.5Y-93.2
X143.75Y-99.0
X143.75Y-100.0
X144.4Y-98.0
X144.57Y-118.095
X144.621Y-87.371
X145.0Y-70.0
X145.7Y-97.4
X145.75Y-72.5
X146.639Y-76.111
X146.75Y-77.0
X146.875Y-100.525
X147.0Y-89.5
X147.0Y-123.25
X148.25Y-74.0
X148.25Y-110.0
X148.75Y-99.725
X149.05Y-95.9
X150.0Y-86.5
X150.0Y-134.5
X150.025Y-99.0
X150.5Y-89.5
X150.5Y-90.75
X150.5Y-129.5
X154.0Y-77.75
X154.25Y-82.0
X154.25Y-85.25
X154.25Y-96.25
X154.5Y-79.0
X154.5Y-87.25
X155.0Y-107.0
X155.5Y-84.75
X155.5Y-87.25
X155.5Y-89.25
X155.75Y-90.75
X155.75Y-92.5
X156.25Y-84.75
X156.25Y-87.25
X156.25Y-98.75
X156.5Y-91.75
X157.5Y-79.75
X157.5Y-80.5
X159.75Y-65.75
X160.5Y-79.75
X160.75Y-122.0
X161.0Y-80.5
X162.3Y-73.1
X164.5Y-99.5
X165.75Y-87.5
X165.75Y-88.75
X167.5Y-68.2
X169.75Y-103.25
X171.5Y-88.25
X175.25Y-66.5
X179.8Y-115.9
X180.0Y-80.5
X180.75Y-68.75
X185.2Y-129.9
T2
X154.5Y-111.0
X154.5Y-112.25
T3
X124.25Y-60.0
X125.75Y-60.0
X143.5Y-60.0
X145.0Y-60.0
T4
X114.25Y-92.1
X114.25Y-94.1
X114.25Y-96.1
T5
X96.5Y-87.75
X96.5Y-90.29
X96.5Y-92.83
X96.5Y-95.37
X96.5Y-101.42
X96.5Y-103.96
X96.5Y-106.5
X96.5Y-109.04
X96.5Y-111.58
X96.5Y-114.12
X113.92Y-134.75
X116.46Y-134.75
X119.0Y-134.75
X121.54Y-134.75
X126.46Y-81.0
X129.0Y-81.0
X152.0Y-59.25
X154.54Y-59.25
X157.08Y-59.25
X158.75Y-83.71
X158.75Y-86.25
X158.75Y-88.79
X159.62Y-59.25
X164.88Y-59.25
X167.42Y-59.25
X168.75Y-79.75
X168.75Y-83.75
X169.96Y-59.25
X171.29Y-79.75
X171.29Y-83.75
X172.5Y-59.25
X173.83Y-79.75
X173.83Y-83.75
X184.5Y-67.29
X184.5Y-69.83
X184.5Y-72.37
X184.5Y-74.91
X184.5Y-79.42
X184.5Y-81.96
X184.5Y-84.5
X184.5Y-87.04
T6
X114.25Y-90.0
X114.25Y-98.2
T7
X98.5Y-61.0
X98.5Y-133.25
X182.0Y-61.0
X182.0Y-133.25
T3
G00X97.325Y-69.68
M15
G01X96.525Y-69.68
M16
G05
G00X97.325Y-78.32
M15
G01X96.525Y-78.32
M16
G05
G00X97.325Y-118.73
M15
G01X96.525Y-118.73
M16
G05
G00X97.325Y-127.37
M15
G01X96.525Y-127.37
M16
G05
G00X101.655Y-69.68
M15
G01X100.555Y-69.68
M16
G05
G00X101.655Y-78.32
M15
G01X100.555Y-78.32
M16
G05
G00X101.655Y-118.73
M15
G01X100.555Y-118.73
M16
G05
G00X101.655Y-127.37
M15
G01X100.555Y-127.37
M16
G05
M30
