G04 #@! TF.GenerationSoftware,KiCad,Pcbnew,10.0.1*
G04 #@! TF.CreationDate,2026-05-28T21:49:46+08:00*
G04 #@! TF.ProjectId,at820_tiga,61743832-305f-4746-9967-612e6b696361,rev?*
G04 #@! TF.SameCoordinates,Original*
G04 #@! TF.FileFunction,Soldermask,Top*
G04 #@! TF.FilePolarity,Negative*
%FSLAX46Y46*%
G04 Gerber Fmt 4.6, Leading zero omitted, Abs format (unit mm)*
G04 Created by KiCad (PCBNEW 10.0.1) date 2026-05-28 21:49:46*
%MOMM*%
%LPD*%
G01*
G04 APERTURE LIST*
G04 Aperture macros list*
%AMRoundRect*
0 Rectangle with rounded corners*
0 $1 Rounding radius*
0 $2 $3 $4 $5 $6 $7 $8 $9 X,Y pos of 4 corners*
0 Add a 4 corners polygon primitive as box body*
4,1,4,$2,$3,$4,$5,$6,$7,$8,$9,$2,$3,0*
0 Add four circle primitives for the rounded corners*
1,1,$1+$1,$2,$3*
1,1,$1+$1,$4,$5*
1,1,$1+$1,$6,$7*
1,1,$1+$1,$8,$9*
0 Add four rect primitives between the rounded corners*
20,1,$1+$1,$2,$3,$4,$5,0*
20,1,$1+$1,$4,$5,$6,$7,0*
20,1,$1+$1,$6,$7,$8,$9,0*
20,1,$1+$1,$8,$9,$2,$3,0*%
G04 Aperture macros list end*
%ADD10RoundRect,0.150000X0.200000X-0.150000X0.200000X0.150000X-0.200000X0.150000X-0.200000X-0.150000X0*%
%ADD11RoundRect,0.237500X-0.237500X0.300000X-0.237500X-0.300000X0.237500X-0.300000X0.237500X0.300000X0*%
%ADD12RoundRect,0.237500X0.237500X-0.300000X0.237500X0.300000X-0.237500X0.300000X-0.237500X-0.300000X0*%
%ADD13RoundRect,0.075000X-0.650000X-0.075000X0.650000X-0.075000X0.650000X0.075000X-0.650000X0.075000X0*%
%ADD14R,1.700000X1.700000*%
%ADD15C,1.700000*%
%ADD16RoundRect,0.237500X0.287500X0.237500X-0.287500X0.237500X-0.287500X-0.237500X0.287500X-0.237500X0*%
%ADD17RoundRect,0.237500X0.250000X0.237500X-0.250000X0.237500X-0.250000X-0.237500X0.250000X-0.237500X0*%
%ADD18C,6.400000*%
%ADD19RoundRect,0.237500X0.237500X-0.250000X0.237500X0.250000X-0.237500X0.250000X-0.237500X-0.250000X0*%
%ADD20RoundRect,0.237500X0.300000X0.237500X-0.300000X0.237500X-0.300000X-0.237500X0.300000X-0.237500X0*%
%ADD21RoundRect,0.237500X-0.237500X0.250000X-0.237500X-0.250000X0.237500X-0.250000X0.237500X0.250000X0*%
%ADD22RoundRect,0.237500X-0.300000X-0.237500X0.300000X-0.237500X0.300000X0.237500X-0.300000X0.237500X0*%
%ADD23C,0.650000*%
%ADD24RoundRect,0.150000X-0.425000X0.150000X-0.425000X-0.150000X0.425000X-0.150000X0.425000X0.150000X0*%
%ADD25RoundRect,0.075000X-0.500000X0.075000X-0.500000X-0.075000X0.500000X-0.075000X0.500000X0.075000X0*%
%ADD26O,2.100000X1.000000*%
%ADD27O,1.800000X1.000000*%
%ADD28O,3.500000X2.200000*%
%ADD29R,2.500000X1.500000*%
%ADD30O,2.500000X1.500000*%
%ADD31RoundRect,0.112500X0.187500X0.112500X-0.187500X0.112500X-0.187500X-0.112500X0.187500X-0.112500X0*%
%ADD32RoundRect,0.237500X-0.287500X-0.237500X0.287500X-0.237500X0.287500X0.237500X-0.287500X0.237500X0*%
%ADD33RoundRect,0.237500X-0.250000X-0.237500X0.250000X-0.237500X0.250000X0.237500X-0.250000X0.237500X0*%
%ADD34R,1.050000X0.650000*%
%ADD35RoundRect,0.249999X-0.450001X-1.800001X0.450001X-1.800001X0.450001X1.800001X-0.450001X1.800001X0*%
%ADD36RoundRect,0.250000X0.350000X0.350000X-0.350000X0.350000X-0.350000X-0.350000X0.350000X-0.350000X0*%
%ADD37C,1.200000*%
%ADD38RoundRect,0.250000X-0.350000X-0.350000X0.350000X-0.350000X0.350000X0.350000X-0.350000X0.350000X0*%
%ADD39RoundRect,0.112500X-0.187500X-0.112500X0.187500X-0.112500X0.187500X0.112500X-0.187500X0.112500X0*%
%ADD40RoundRect,0.150000X-0.200000X0.150000X-0.200000X-0.150000X0.200000X-0.150000X0.200000X0.150000X0*%
%ADD41RoundRect,0.150000X-0.825000X-0.150000X0.825000X-0.150000X0.825000X0.150000X-0.825000X0.150000X0*%
%ADD42R,2.290000X3.000000*%
%ADD43RoundRect,0.375000X-0.625000X-0.375000X0.625000X-0.375000X0.625000X0.375000X-0.625000X0.375000X0*%
%ADD44RoundRect,0.500000X-0.500000X-1.400000X0.500000X-1.400000X0.500000X1.400000X-0.500000X1.400000X0*%
%ADD45RoundRect,0.250000X-0.450000X-0.350000X0.450000X-0.350000X0.450000X0.350000X-0.450000X0.350000X0*%
%ADD46RoundRect,0.062500X-0.350000X-0.062500X0.350000X-0.062500X0.350000X0.062500X-0.350000X0.062500X0*%
%ADD47RoundRect,0.062500X-0.062500X-0.350000X0.062500X-0.350000X0.062500X0.350000X-0.062500X0.350000X0*%
%ADD48R,3.600000X3.600000*%
%ADD49RoundRect,0.237500X-0.237500X0.287500X-0.237500X-0.287500X0.237500X-0.287500X0.237500X0.287500X0*%
%ADD50RoundRect,0.200000X0.450000X-0.200000X0.450000X0.200000X-0.450000X0.200000X-0.450000X-0.200000X0*%
%ADD51O,1.300000X0.800000*%
%ADD52RoundRect,0.075000X-0.075000X0.312500X-0.075000X-0.312500X0.075000X-0.312500X0.075000X0.312500X0*%
%ADD53RoundRect,0.075000X-0.312500X0.075000X-0.312500X-0.075000X0.312500X-0.075000X0.312500X0.075000X0*%
%ADD54R,1.800000X1.800000*%
%ADD55RoundRect,0.190000X-0.610000X-0.190000X0.610000X-0.190000X0.610000X0.190000X-0.610000X0.190000X0*%
G04 APERTURE END LIST*
D10*
G04 #@! TO.C,D5*
X110200000Y-119450000D03*
X110200000Y-120850000D03*
G04 #@! TD*
D11*
G04 #@! TO.C,C8*
X150750000Y-82275000D03*
X150750000Y-84000000D03*
G04 #@! TD*
G04 #@! TO.C,C7*
X148750000Y-82275000D03*
X148750000Y-84000000D03*
G04 #@! TD*
D12*
G04 #@! TO.C,C31*
X125000000Y-68000000D03*
X125000000Y-66275000D03*
G04 #@! TD*
D13*
G04 #@! TO.C,U1*
X121350000Y-93750000D03*
X121350000Y-94250000D03*
X121350000Y-94750000D03*
X121350000Y-95250000D03*
X121350000Y-95750000D03*
X125650000Y-95750000D03*
X125650000Y-95250000D03*
X125650000Y-94750000D03*
X125650000Y-94250000D03*
X125650000Y-93750000D03*
G04 #@! TD*
D14*
G04 #@! TO.C,J8*
X121540000Y-134750000D03*
D15*
X119000000Y-134750000D03*
X116460000Y-134750000D03*
X113920000Y-134750000D03*
G04 #@! TD*
D16*
G04 #@! TO.C,D2*
X121250000Y-98000000D03*
X119500000Y-98000000D03*
G04 #@! TD*
D17*
G04 #@! TO.C,R2*
X134912500Y-89750000D03*
X133087500Y-89750000D03*
G04 #@! TD*
D18*
G04 #@! TO.C,H2*
X98500000Y-133250000D03*
G04 #@! TD*
D11*
G04 #@! TO.C,C34*
X132250000Y-68275000D03*
X132250000Y-70000000D03*
G04 #@! TD*
D19*
G04 #@! TO.C,R14*
X107700000Y-71612500D03*
X107700000Y-69787500D03*
G04 #@! TD*
D20*
G04 #@! TO.C,C13*
X134862500Y-93700000D03*
X133137500Y-93700000D03*
G04 #@! TD*
D21*
G04 #@! TO.C,R12*
X107500000Y-76587500D03*
X107500000Y-78412500D03*
G04 #@! TD*
D14*
G04 #@! TO.C,J7*
X96500000Y-101420000D03*
D15*
X96500000Y-103960000D03*
X96500000Y-106500000D03*
X96500000Y-109040000D03*
X96500000Y-111580000D03*
X96500000Y-114120000D03*
G04 #@! TD*
D17*
G04 #@! TO.C,R3*
X128600000Y-84500000D03*
X126775000Y-84500000D03*
G04 #@! TD*
D14*
G04 #@! TO.C,J4*
X184500000Y-87040000D03*
D15*
X184500000Y-84500000D03*
X184500000Y-81960000D03*
X184500000Y-79420000D03*
G04 #@! TD*
D21*
G04 #@! TO.C,R25*
X146750000Y-68175000D03*
X146750000Y-70000000D03*
G04 #@! TD*
D22*
G04 #@! TO.C,C19*
X152775000Y-88500000D03*
X154500000Y-88500000D03*
G04 #@! TD*
D23*
G04 #@! TO.C,J10*
X100605000Y-71110000D03*
X100605000Y-76890000D03*
D24*
X101680000Y-70800000D03*
X101680000Y-71600000D03*
D25*
X101680000Y-72750000D03*
X101680000Y-73750000D03*
X101680000Y-74250000D03*
X101680000Y-75250000D03*
D24*
X101680000Y-76400000D03*
X101680000Y-77200000D03*
X101680000Y-77200000D03*
X101680000Y-76400000D03*
D25*
X101680000Y-75750000D03*
X101680000Y-74750000D03*
X101680000Y-73250000D03*
X101680000Y-72250000D03*
D24*
X101680000Y-71600000D03*
X101680000Y-70800000D03*
D26*
X101105000Y-69680000D03*
D27*
X96925000Y-69680000D03*
D26*
X101105000Y-78320000D03*
D27*
X96925000Y-78320000D03*
G04 #@! TD*
D11*
G04 #@! TO.C,C23*
X146875000Y-102300000D03*
X146875000Y-104025000D03*
G04 #@! TD*
G04 #@! TO.C,C3*
X144950000Y-102312500D03*
X144950000Y-104037500D03*
G04 #@! TD*
D28*
G04 #@! TO.C,SW1*
X114250000Y-98200000D03*
X114250000Y-90000000D03*
D29*
X114250000Y-96100000D03*
D30*
X114250000Y-94100000D03*
X114250000Y-92100000D03*
G04 #@! TD*
D22*
G04 #@! TO.C,C12*
X131350000Y-131000000D03*
X133075000Y-131000000D03*
G04 #@! TD*
D17*
G04 #@! TO.C,R5*
X121317500Y-99865000D03*
X119492500Y-99865000D03*
G04 #@! TD*
D12*
G04 #@! TO.C,C22*
X144750000Y-84000000D03*
X144750000Y-82275000D03*
G04 #@! TD*
D18*
G04 #@! TO.C,H1*
X98500000Y-61000000D03*
G04 #@! TD*
D31*
G04 #@! TO.C,D10*
X101505000Y-82500000D03*
X99405000Y-82500000D03*
G04 #@! TD*
D18*
G04 #@! TO.C,H3*
X182000000Y-61000000D03*
G04 #@! TD*
D12*
G04 #@! TO.C,C11*
X126000000Y-117475000D03*
X126000000Y-115750000D03*
G04 #@! TD*
D21*
G04 #@! TO.C,R24*
X146750000Y-64087500D03*
X146750000Y-65912500D03*
G04 #@! TD*
D11*
G04 #@! TO.C,C5*
X142800000Y-82275000D03*
X142800000Y-84000000D03*
G04 #@! TD*
D20*
G04 #@! TO.C,C28*
X135545000Y-122000000D03*
X133820000Y-122000000D03*
G04 #@! TD*
D16*
G04 #@! TO.C,D11*
X116987500Y-110750000D03*
X115237500Y-110750000D03*
G04 #@! TD*
D12*
G04 #@! TO.C,C27*
X136600000Y-83962500D03*
X136600000Y-82237500D03*
G04 #@! TD*
D32*
G04 #@! TO.C,D1*
X125375000Y-98000000D03*
X127125000Y-98000000D03*
G04 #@! TD*
D33*
G04 #@! TO.C,R21*
X133770000Y-120000000D03*
X135595000Y-120000000D03*
G04 #@! TD*
D19*
G04 #@! TO.C,R8*
X105770000Y-120650000D03*
X105770000Y-118825000D03*
G04 #@! TD*
D34*
G04 #@! TO.C,SW2*
X129925000Y-133425000D03*
X134075000Y-133425000D03*
X129925000Y-135575000D03*
X134075000Y-135575000D03*
G04 #@! TD*
D14*
G04 #@! TO.C,J11*
X158750000Y-88790000D03*
D15*
X158750000Y-86250000D03*
X158750000Y-83710000D03*
G04 #@! TD*
D20*
G04 #@! TO.C,C20*
X134862500Y-95750000D03*
X133137500Y-95750000D03*
G04 #@! TD*
D35*
G04 #@! TO.C,L1*
X137990000Y-126345000D03*
X140690000Y-126345000D03*
G04 #@! TD*
D21*
G04 #@! TO.C,R18*
X122500000Y-64087500D03*
X122500000Y-65912500D03*
G04 #@! TD*
D19*
G04 #@! TO.C,R6*
X129500000Y-122662500D03*
X129500000Y-120837500D03*
G04 #@! TD*
D11*
G04 #@! TO.C,C9*
X152750000Y-82250000D03*
X152750000Y-83975000D03*
G04 #@! TD*
G04 #@! TO.C,C4*
X124000000Y-126000000D03*
X124000000Y-127725000D03*
G04 #@! TD*
D19*
G04 #@! TO.C,R22*
X141750000Y-70000000D03*
X141750000Y-68175000D03*
G04 #@! TD*
D17*
G04 #@! TO.C,R15*
X117025000Y-108750000D03*
X115200000Y-108750000D03*
G04 #@! TD*
D21*
G04 #@! TO.C,R9*
X105650000Y-76587500D03*
X105650000Y-78412500D03*
G04 #@! TD*
D22*
G04 #@! TO.C,C33*
X153182500Y-120000000D03*
X154907500Y-120000000D03*
G04 #@! TD*
D36*
G04 #@! TO.C,MK1*
X125750000Y-60000000D03*
D37*
X124250000Y-60000000D03*
G04 #@! TD*
D19*
G04 #@! TO.C,R13*
X107700000Y-120650000D03*
X107700000Y-118825000D03*
G04 #@! TD*
D14*
G04 #@! TO.C,J2*
X152000000Y-59250000D03*
D15*
X154540000Y-59250000D03*
X157080000Y-59250000D03*
X159620000Y-59250000D03*
G04 #@! TD*
D11*
G04 #@! TO.C,C1*
X150750000Y-102275000D03*
X150750000Y-104000000D03*
G04 #@! TD*
D38*
G04 #@! TO.C,MK2*
X143500000Y-60000000D03*
D37*
X145000000Y-60000000D03*
G04 #@! TD*
D39*
G04 #@! TO.C,D9*
X100450000Y-115000000D03*
X102550000Y-115000000D03*
G04 #@! TD*
D20*
G04 #@! TO.C,C16*
X116975000Y-106750000D03*
X115250000Y-106750000D03*
G04 #@! TD*
D19*
G04 #@! TO.C,R16*
X127500000Y-70000000D03*
X127500000Y-68175000D03*
G04 #@! TD*
D40*
G04 #@! TO.C,D8*
X110200000Y-77800000D03*
X110200000Y-76400000D03*
G04 #@! TD*
D34*
G04 #@! TO.C,SW4*
X138925000Y-133425000D03*
X143075000Y-133425000D03*
X138925000Y-135575000D03*
X143075000Y-135575000D03*
G04 #@! TD*
D33*
G04 #@! TO.C,R20*
X133770000Y-118000000D03*
X135595000Y-118000000D03*
G04 #@! TD*
D12*
G04 #@! TO.C,C10*
X121750000Y-117475000D03*
X121750000Y-115750000D03*
G04 #@! TD*
D41*
G04 #@! TO.C,U5*
X142095000Y-116190000D03*
X142095000Y-117460000D03*
X142095000Y-118730000D03*
X142095000Y-120000000D03*
X147045000Y-120000000D03*
X147045000Y-118730000D03*
X147045000Y-117460000D03*
X147045000Y-116190000D03*
D42*
X144570000Y-118095000D03*
G04 #@! TD*
D19*
G04 #@! TO.C,R1*
X148750000Y-104050000D03*
X148750000Y-102225000D03*
G04 #@! TD*
D43*
G04 #@! TO.C,U4*
X121600000Y-105450000D03*
X121600000Y-107750000D03*
D44*
X127900000Y-107750000D03*
D43*
X121600000Y-110050000D03*
G04 #@! TD*
D40*
G04 #@! TO.C,D6*
X105800000Y-127050000D03*
X105800000Y-125650000D03*
G04 #@! TD*
D23*
G04 #@! TO.C,J9*
X100605000Y-120160000D03*
X100605000Y-125940000D03*
D24*
X101680000Y-119850000D03*
X101680000Y-120650000D03*
D25*
X101680000Y-121800000D03*
X101680000Y-122800000D03*
X101680000Y-123300000D03*
X101680000Y-124300000D03*
D24*
X101680000Y-125450000D03*
X101680000Y-126250000D03*
X101680000Y-126250000D03*
X101680000Y-125450000D03*
D25*
X101680000Y-124800000D03*
X101680000Y-123800000D03*
X101680000Y-122300000D03*
X101680000Y-121300000D03*
D24*
X101680000Y-120650000D03*
X101680000Y-119850000D03*
D26*
X101105000Y-118730000D03*
D27*
X96925000Y-118730000D03*
D26*
X101105000Y-127370000D03*
D27*
X96925000Y-127370000D03*
G04 #@! TD*
D20*
G04 #@! TO.C,C18*
X134862500Y-87750000D03*
X133137500Y-87750000D03*
G04 #@! TD*
D22*
G04 #@! TO.C,C32*
X153182500Y-118000000D03*
X154907500Y-118000000D03*
G04 #@! TD*
D14*
G04 #@! TO.C,J13*
X168750000Y-83750000D03*
D15*
X171290000Y-83750000D03*
X173830000Y-83750000D03*
G04 #@! TD*
D12*
G04 #@! TO.C,C35*
X144250000Y-67862500D03*
X144250000Y-66137500D03*
G04 #@! TD*
D45*
G04 #@! TO.C,Y1*
X140525000Y-104125000D03*
X142725000Y-104125000D03*
X142725000Y-102425000D03*
X140525000Y-102425000D03*
G04 #@! TD*
D21*
G04 #@! TO.C,R11*
X107700000Y-125500000D03*
X107700000Y-127325000D03*
G04 #@! TD*
D14*
G04 #@! TO.C,J3*
X96500000Y-87750000D03*
D15*
X96500000Y-90290000D03*
X96500000Y-92830000D03*
X96500000Y-95370000D03*
G04 #@! TD*
D12*
G04 #@! TO.C,C26*
X138600000Y-83962500D03*
X138600000Y-82237500D03*
G04 #@! TD*
D11*
G04 #@! TO.C,C29*
X133750000Y-114250000D03*
X133750000Y-115975000D03*
G04 #@! TD*
D33*
G04 #@! TO.C,R10*
X142775000Y-80100000D03*
X144600000Y-80100000D03*
G04 #@! TD*
D46*
G04 #@! TO.C,U2*
X141062500Y-91400000D03*
X141062500Y-91800000D03*
X141062500Y-92200000D03*
X141062500Y-92600000D03*
X141062500Y-93000000D03*
X141062500Y-93400000D03*
X141062500Y-93800000D03*
X141062500Y-94200000D03*
X141062500Y-94600000D03*
X141062500Y-95000000D03*
D47*
X141700000Y-95637500D03*
X142100000Y-95637500D03*
X142500000Y-95637500D03*
X142900000Y-95637500D03*
X143300000Y-95637500D03*
X143700000Y-95637500D03*
X144100000Y-95637500D03*
X144500000Y-95637500D03*
X144900000Y-95637500D03*
X145300000Y-95637500D03*
D46*
X145937500Y-95000000D03*
X145937500Y-94600000D03*
X145937500Y-94200000D03*
X145937500Y-93800000D03*
X145937500Y-93400000D03*
X145937500Y-93000000D03*
X145937500Y-92600000D03*
X145937500Y-92200000D03*
X145937500Y-91800000D03*
X145937500Y-91400000D03*
D47*
X145300000Y-90762500D03*
X144900000Y-90762500D03*
X144500000Y-90762500D03*
X144100000Y-90762500D03*
X143700000Y-90762500D03*
X143300000Y-90762500D03*
X142900000Y-90762500D03*
X142500000Y-90762500D03*
X142100000Y-90762500D03*
X141700000Y-90762500D03*
D48*
X143500000Y-93200000D03*
G04 #@! TD*
D20*
G04 #@! TO.C,C17*
X116975000Y-104750000D03*
X115250000Y-104750000D03*
G04 #@! TD*
D33*
G04 #@! TO.C,R4*
X125337500Y-99865000D03*
X127162500Y-99865000D03*
G04 #@! TD*
D10*
G04 #@! TO.C,D7*
X105800000Y-70250000D03*
X105800000Y-71650000D03*
G04 #@! TD*
D33*
G04 #@! TO.C,R7*
X133087500Y-91700000D03*
X134912500Y-91700000D03*
G04 #@! TD*
D18*
G04 #@! TO.C,H4*
X182000000Y-133250000D03*
G04 #@! TD*
D14*
G04 #@! TO.C,J12*
X168750000Y-79750000D03*
D15*
X171290000Y-79750000D03*
X173830000Y-79750000D03*
G04 #@! TD*
D34*
G04 #@! TO.C,SW3*
X147925000Y-133425000D03*
X152075000Y-133425000D03*
X147925000Y-135575000D03*
X152075000Y-135575000D03*
G04 #@! TD*
D22*
G04 #@! TO.C,C15*
X140275000Y-131000000D03*
X142000000Y-131000000D03*
G04 #@! TD*
D19*
G04 #@! TO.C,R17*
X127500000Y-65912500D03*
X127500000Y-64087500D03*
G04 #@! TD*
D22*
G04 #@! TO.C,C14*
X149037500Y-131000000D03*
X150762500Y-131000000D03*
G04 #@! TD*
D12*
G04 #@! TO.C,C2*
X138300000Y-104037500D03*
X138300000Y-102312500D03*
G04 #@! TD*
D40*
G04 #@! TO.C,D3*
X110200000Y-126700000D03*
X110200000Y-125300000D03*
G04 #@! TD*
D11*
G04 #@! TO.C,C24*
X136325000Y-102312500D03*
X136325000Y-104037500D03*
G04 #@! TD*
D10*
G04 #@! TO.C,D4*
X110200000Y-71100000D03*
X110200000Y-72500000D03*
G04 #@! TD*
D31*
G04 #@! TO.C,D12*
X149790000Y-126345000D03*
X147690000Y-126345000D03*
G04 #@! TD*
D49*
G04 #@! TO.C,FB1*
X140600000Y-82225000D03*
X140600000Y-83975000D03*
G04 #@! TD*
D14*
G04 #@! TO.C,J5*
X172500000Y-59250000D03*
D15*
X169960000Y-59250000D03*
X167420000Y-59250000D03*
X164880000Y-59250000D03*
G04 #@! TD*
D50*
G04 #@! TO.C,LS1*
X154500000Y-112250000D03*
D51*
X154500000Y-111000000D03*
G04 #@! TD*
D11*
G04 #@! TO.C,C30*
X135760000Y-114250000D03*
X135760000Y-115975000D03*
G04 #@! TD*
D21*
G04 #@! TO.C,R19*
X122500000Y-68087500D03*
X122500000Y-69912500D03*
G04 #@! TD*
D52*
G04 #@! TO.C,U3*
X125512500Y-120212500D03*
X125012500Y-120212500D03*
X124512500Y-120212500D03*
X124012500Y-120212500D03*
D53*
X123275000Y-120950000D03*
X123275000Y-121450000D03*
X123275000Y-121950000D03*
X123275000Y-122450000D03*
D52*
X124012500Y-123187500D03*
X124512500Y-123187500D03*
X125012500Y-123187500D03*
X125512500Y-123187500D03*
D53*
X126250000Y-122450000D03*
X126250000Y-121950000D03*
X126250000Y-121450000D03*
X126250000Y-120950000D03*
D54*
X124762500Y-121700000D03*
G04 #@! TD*
D11*
G04 #@! TO.C,C25*
X152750000Y-102250000D03*
X152750000Y-103975000D03*
G04 #@! TD*
D14*
G04 #@! TO.C,J1*
X129000000Y-81000000D03*
D15*
X126460000Y-81000000D03*
G04 #@! TD*
D14*
G04 #@! TO.C,J6*
X184500000Y-67290000D03*
D15*
X184500000Y-69830000D03*
X184500000Y-72370000D03*
X184500000Y-74910000D03*
G04 #@! TD*
D55*
G04 #@! TO.C,SW5*
X167630000Y-87615000D03*
X167630000Y-88885000D03*
X175250000Y-88885000D03*
X175250000Y-87615000D03*
G04 #@! TD*
D22*
G04 #@! TO.C,C21*
X152775000Y-90520000D03*
X154500000Y-90520000D03*
G04 #@! TD*
D11*
G04 #@! TO.C,C36*
X134750000Y-68275000D03*
X134750000Y-70000000D03*
G04 #@! TD*
D19*
G04 #@! TO.C,R23*
X141750000Y-65912500D03*
X141750000Y-64087500D03*
G04 #@! TD*
D11*
G04 #@! TO.C,C6*
X146750000Y-82275000D03*
X146750000Y-84000000D03*
G04 #@! TD*
M02*
