G04 #@! TF.GenerationSoftware,KiCad,Pcbnew,10.0.1*
G04 #@! TF.CreationDate,2026-05-28T21:49:46+08:00*
G04 #@! TF.ProjectId,at820_tiga,61743832-305f-4746-9967-612e6b696361,rev?*
G04 #@! TF.SameCoordinates,Original*
G04 #@! TF.FileFunction,Soldermask,Bot*
G04 #@! TF.FilePolarity,Negative*
%FSLAX46Y46*%
G04 Gerber Fmt 4.6, Leading zero omitted, Abs format (unit mm)*
G04 Created by KiCad (PCBNEW 10.0.1) date 2026-05-28 21:49:46*
%MOMM*%
%LPD*%
G01*
G04 APERTURE LIST*
G04 Aperture macros list*
%AMRoundRect*
0 Rectangle with rounded corners*
0 $1 Rounding radius*
0 $2 $3 $4 $5 $6 $7 $8 $9 X,Y pos of 4 corners*
0 Add a 4 corners polygon primitive as box body*
4,1,4,$2,$3,$4,$5,$6,$7,$8,$9,$2,$3,0*
0 Add four circle primitives for the rounded corners*
1,1,$1+$1,$2,$3*
1,1,$1+$1,$4,$5*
1,1,$1+$1,$6,$7*
1,1,$1+$1,$8,$9*
0 Add four rect primitives between the rounded corners*
20,1,$1+$1,$2,$3,$4,$5,0*
20,1,$1+$1,$4,$5,$6,$7,0*
20,1,$1+$1,$6,$7,$8,$9,0*
20,1,$1+$1,$8,$9,$2,$3,0*%
G04 Aperture macros list end*
%ADD10R,1.700000X1.700000*%
%ADD11C,1.700000*%
%ADD12C,6.400000*%
%ADD13C,0.650000*%
%ADD14O,2.100000X1.000000*%
%ADD15O,1.800000X1.000000*%
%ADD16O,3.500000X2.200000*%
%ADD17R,2.500000X1.500000*%
%ADD18O,2.500000X1.500000*%
%ADD19RoundRect,0.250000X0.350000X0.350000X-0.350000X0.350000X-0.350000X-0.350000X0.350000X-0.350000X0*%
%ADD20C,1.200000*%
%ADD21RoundRect,0.250000X-0.350000X-0.350000X0.350000X-0.350000X0.350000X0.350000X-0.350000X0.350000X0*%
%ADD22RoundRect,0.200000X0.450000X-0.200000X0.450000X0.200000X-0.450000X0.200000X-0.450000X-0.200000X0*%
%ADD23O,1.300000X0.800000*%
G04 APERTURE END LIST*
D10*
G04 #@! TO.C,J8*
X121540000Y-134750000D03*
D11*
X119000000Y-134750000D03*
X116460000Y-134750000D03*
X113920000Y-134750000D03*
G04 #@! TD*
D12*
G04 #@! TO.C,H2*
X98500000Y-133250000D03*
G04 #@! TD*
D10*
G04 #@! TO.C,J7*
X96500000Y-101420000D03*
D11*
X96500000Y-103960000D03*
X96500000Y-106500000D03*
X96500000Y-109040000D03*
X96500000Y-111580000D03*
X96500000Y-114120000D03*
G04 #@! TD*
D10*
G04 #@! TO.C,J4*
X184500000Y-87040000D03*
D11*
X184500000Y-84500000D03*
X184500000Y-81960000D03*
X184500000Y-79420000D03*
G04 #@! TD*
D13*
G04 #@! TO.C,J10*
X100605000Y-71110000D03*
X100605000Y-76890000D03*
D14*
X101105000Y-69680000D03*
D15*
X96925000Y-69680000D03*
D14*
X101105000Y-78320000D03*
D15*
X96925000Y-78320000D03*
G04 #@! TD*
D16*
G04 #@! TO.C,SW1*
X114250000Y-98200000D03*
X114250000Y-90000000D03*
D17*
X114250000Y-96100000D03*
D18*
X114250000Y-94100000D03*
X114250000Y-92100000D03*
G04 #@! TD*
D12*
G04 #@! TO.C,H1*
X98500000Y-61000000D03*
G04 #@! TD*
G04 #@! TO.C,H3*
X182000000Y-61000000D03*
G04 #@! TD*
D10*
G04 #@! TO.C,J11*
X158750000Y-88790000D03*
D11*
X158750000Y-86250000D03*
X158750000Y-83710000D03*
G04 #@! TD*
D19*
G04 #@! TO.C,MK1*
X125750000Y-60000000D03*
D20*
X124250000Y-60000000D03*
G04 #@! TD*
D10*
G04 #@! TO.C,J2*
X152000000Y-59250000D03*
D11*
X154540000Y-59250000D03*
X157080000Y-59250000D03*
X159620000Y-59250000D03*
G04 #@! TD*
D21*
G04 #@! TO.C,MK2*
X143500000Y-60000000D03*
D20*
X145000000Y-60000000D03*
G04 #@! TD*
D13*
G04 #@! TO.C,J9*
X100605000Y-120160000D03*
X100605000Y-125940000D03*
D14*
X101105000Y-118730000D03*
D15*
X96925000Y-118730000D03*
D14*
X101105000Y-127370000D03*
D15*
X96925000Y-127370000D03*
G04 #@! TD*
D10*
G04 #@! TO.C,J13*
X168750000Y-83750000D03*
D11*
X171290000Y-83750000D03*
X173830000Y-83750000D03*
G04 #@! TD*
D10*
G04 #@! TO.C,J3*
X96500000Y-87750000D03*
D11*
X96500000Y-90290000D03*
X96500000Y-92830000D03*
X96500000Y-95370000D03*
G04 #@! TD*
D12*
G04 #@! TO.C,H4*
X182000000Y-133250000D03*
G04 #@! TD*
D10*
G04 #@! TO.C,J12*
X168750000Y-79750000D03*
D11*
X171290000Y-79750000D03*
X173830000Y-79750000D03*
G04 #@! TD*
D10*
G04 #@! TO.C,J5*
X172500000Y-59250000D03*
D11*
X169960000Y-59250000D03*
X167420000Y-59250000D03*
X164880000Y-59250000D03*
G04 #@! TD*
D22*
G04 #@! TO.C,LS1*
X154500000Y-112250000D03*
D23*
X154500000Y-111000000D03*
G04 #@! TD*
D10*
G04 #@! TO.C,J1*
X129000000Y-81000000D03*
D11*
X126460000Y-81000000D03*
G04 #@! TD*
D10*
G04 #@! TO.C,J6*
X184500000Y-67290000D03*
D11*
X184500000Y-69830000D03*
X184500000Y-72370000D03*
X184500000Y-74910000D03*
G04 #@! TD*
M02*
