G04 #@! TF.GenerationSoftware,KiCad,Pcbnew,10.0.1*
G04 #@! TF.CreationDate,2026-06-04T22:00:59+08:00*
G04 #@! TF.ProjectId,at820_tiga,61743832-305f-4746-9967-612e6b696361,rev?*
G04 #@! TF.SameCoordinates,Original*
G04 #@! TF.FileFunction,Paste,Top*
G04 #@! TF.FilePolarity,Positive*
%FSLAX46Y46*%
G04 Gerber Fmt 4.6, Leading zero omitted, Abs format (unit mm)*
G04 Created by KiCad (PCBNEW 10.0.1) date 2026-06-04 22:00:59*
%MOMM*%
%LPD*%
G01*
G04 APERTURE LIST*
G04 Aperture macros list*
%AMRoundRect*
0 Rectangle with rounded corners*
0 $1 Rounding radius*
0 $2 $3 $4 $5 $6 $7 $8 $9 X,Y pos of 4 corners*
0 Add a 4 corners polygon primitive as box body*
4,1,4,$2,$3,$4,$5,$6,$7,$8,$9,$2,$3,0*
0 Add four circle primitives for the rounded corners*
1,1,$1+$1,$2,$3*
1,1,$1+$1,$4,$5*
1,1,$1+$1,$6,$7*
1,1,$1+$1,$8,$9*
0 Add four rect primitives between the rounded corners*
20,1,$1+$1,$2,$3,$4,$5,0*
20,1,$1+$1,$4,$5,$6,$7,0*
20,1,$1+$1,$6,$7,$8,$9,0*
20,1,$1+$1,$8,$9,$2,$3,0*%
G04 Aperture macros list end*
%ADD10RoundRect,0.150000X0.200000X-0.150000X0.200000X0.150000X-0.200000X0.150000X-0.200000X-0.150000X0*%
%ADD11O,1.800000X1.000000*%
%ADD12O,2.100000X1.000000*%
%ADD13RoundRect,0.150000X-0.425000X0.150000X-0.425000X-0.150000X0.425000X-0.150000X0.425000X0.150000X0*%
%ADD14RoundRect,0.075000X-0.500000X0.075000X-0.500000X-0.075000X0.500000X-0.075000X0.500000X0.075000X0*%
%ADD15RoundRect,0.062500X-0.062500X-0.350000X0.062500X-0.350000X0.062500X0.350000X-0.062500X0.350000X0*%
%ADD16RoundRect,0.062500X-0.350000X-0.062500X0.350000X-0.062500X0.350000X0.062500X-0.350000X0.062500X0*%
%ADD17RoundRect,0.242500X-0.242500X-0.242500X0.242500X-0.242500X0.242500X0.242500X-0.242500X0.242500X0*%
%ADD18RoundRect,0.075000X-0.312500X0.075000X-0.312500X-0.075000X0.312500X-0.075000X0.312500X0.075000X0*%
%ADD19RoundRect,0.075000X-0.075000X0.312500X-0.075000X-0.312500X0.075000X-0.312500X0.075000X0.312500X0*%
%ADD20RoundRect,0.182500X-0.182500X0.182500X-0.182500X-0.182500X0.182500X-0.182500X0.182500X0.182500X0*%
%ADD21RoundRect,0.150000X-0.825000X-0.150000X0.825000X-0.150000X0.825000X0.150000X-0.825000X0.150000X0*%
%ADD22RoundRect,0.230000X-0.230000X-0.375000X0.230000X-0.375000X0.230000X0.375000X-0.230000X0.375000X0*%
%ADD23RoundRect,0.237500X0.287500X0.237500X-0.287500X0.237500X-0.287500X-0.237500X0.287500X-0.237500X0*%
%ADD24RoundRect,0.237500X0.237500X-0.250000X0.237500X0.250000X-0.237500X0.250000X-0.237500X-0.250000X0*%
%ADD25RoundRect,0.150000X0.150000X-0.587500X0.150000X0.587500X-0.150000X0.587500X-0.150000X-0.587500X0*%
%ADD26RoundRect,0.237500X-0.250000X-0.237500X0.250000X-0.237500X0.250000X0.237500X-0.250000X0.237500X0*%
%ADD27RoundRect,0.150000X-0.150000X0.587500X-0.150000X-0.587500X0.150000X-0.587500X0.150000X0.587500X0*%
%ADD28RoundRect,0.250000X1.500000X0.650000X-1.500000X0.650000X-1.500000X-0.650000X1.500000X-0.650000X0*%
%ADD29RoundRect,0.250001X-0.499999X-0.999999X0.499999X-0.999999X0.499999X0.999999X-0.499999X0.999999X0*%
%ADD30RoundRect,0.237500X-0.237500X0.300000X-0.237500X-0.300000X0.237500X-0.300000X0.237500X0.300000X0*%
%ADD31RoundRect,0.237500X0.237500X-0.300000X0.237500X0.300000X-0.237500X0.300000X-0.237500X-0.300000X0*%
%ADD32RoundRect,0.075000X-0.650000X-0.075000X0.650000X-0.075000X0.650000X0.075000X-0.650000X0.075000X0*%
%ADD33RoundRect,0.237500X-0.287500X-0.237500X0.287500X-0.237500X0.287500X0.237500X-0.287500X0.237500X0*%
%ADD34RoundRect,0.237500X0.250000X0.237500X-0.250000X0.237500X-0.250000X-0.237500X0.250000X-0.237500X0*%
%ADD35RoundRect,0.237500X0.300000X0.237500X-0.300000X0.237500X-0.300000X-0.237500X0.300000X-0.237500X0*%
%ADD36RoundRect,0.237500X-0.237500X0.250000X-0.237500X-0.250000X0.237500X-0.250000X0.237500X0.250000X0*%
%ADD37RoundRect,0.237500X-0.300000X-0.237500X0.300000X-0.237500X0.300000X0.237500X-0.300000X0.237500X0*%
%ADD38RoundRect,0.112500X0.187500X0.112500X-0.187500X0.112500X-0.187500X-0.112500X0.187500X-0.112500X0*%
%ADD39R,1.050000X0.650000*%
%ADD40RoundRect,0.112500X-0.187500X-0.112500X0.187500X-0.112500X0.187500X0.112500X-0.187500X0.112500X0*%
%ADD41RoundRect,0.150000X-0.200000X0.150000X-0.200000X-0.150000X0.200000X-0.150000X0.200000X0.150000X0*%
%ADD42RoundRect,0.375000X-0.625000X-0.375000X0.625000X-0.375000X0.625000X0.375000X-0.625000X0.375000X0*%
%ADD43RoundRect,0.500000X-0.500000X-1.400000X0.500000X-1.400000X0.500000X1.400000X-0.500000X1.400000X0*%
%ADD44RoundRect,0.250000X-0.450000X-0.350000X0.450000X-0.350000X0.450000X0.350000X-0.450000X0.350000X0*%
%ADD45RoundRect,0.237500X-0.237500X0.287500X-0.237500X-0.287500X0.237500X-0.287500X0.237500X0.287500X0*%
%ADD46RoundRect,0.190000X-0.610000X-0.190000X0.610000X-0.190000X0.610000X0.190000X-0.610000X0.190000X0*%
G04 APERTURE END LIST*
D10*
G04 #@! TO.C,D6*
X105500000Y-120650000D03*
X105500000Y-119250000D03*
G04 #@! TD*
D11*
G04 #@! TO.C,J9*
X96370000Y-127370000D03*
D12*
X100550000Y-127370000D03*
D11*
X96370000Y-118730000D03*
D12*
X100550000Y-118730000D03*
D13*
X101125000Y-119850000D03*
X101125000Y-120650000D03*
D14*
X101125000Y-121300000D03*
X101125000Y-122300000D03*
X101125000Y-123800000D03*
X101125000Y-124800000D03*
D13*
X101125000Y-125450000D03*
X101125000Y-126250000D03*
X101125000Y-126250000D03*
X101125000Y-125450000D03*
D14*
X101125000Y-124300000D03*
X101125000Y-123300000D03*
X101125000Y-122800000D03*
X101125000Y-121800000D03*
D13*
X101125000Y-120650000D03*
X101125000Y-119850000D03*
G04 #@! TD*
D11*
G04 #@! TO.C,J10*
X96385000Y-78320000D03*
D12*
X100565000Y-78320000D03*
D11*
X96385000Y-69680000D03*
D12*
X100565000Y-69680000D03*
D13*
X101140000Y-70800000D03*
X101140000Y-71600000D03*
D14*
X101140000Y-72250000D03*
X101140000Y-73250000D03*
X101140000Y-74750000D03*
X101140000Y-75750000D03*
D13*
X101140000Y-76400000D03*
X101140000Y-77200000D03*
X101140000Y-77200000D03*
X101140000Y-76400000D03*
D14*
X101140000Y-75250000D03*
X101140000Y-74250000D03*
X101140000Y-73750000D03*
X101140000Y-72750000D03*
D13*
X101140000Y-71600000D03*
X101140000Y-70800000D03*
G04 #@! TD*
D15*
G04 #@! TO.C,U2*
X141700000Y-90762500D03*
X142100000Y-90762500D03*
X142500000Y-90762500D03*
X142900000Y-90762500D03*
X143300000Y-90762500D03*
X143700000Y-90762500D03*
X144100000Y-90762500D03*
X144500000Y-90762500D03*
X144900000Y-90762500D03*
X145300000Y-90762500D03*
D16*
X145937500Y-91400000D03*
X145937500Y-91800000D03*
X145937500Y-92200000D03*
X145937500Y-92600000D03*
X145937500Y-93000000D03*
X145937500Y-93400000D03*
X145937500Y-93800000D03*
X145937500Y-94200000D03*
X145937500Y-94600000D03*
X145937500Y-95000000D03*
D15*
X145300000Y-95637500D03*
X144900000Y-95637500D03*
X144500000Y-95637500D03*
X144100000Y-95637500D03*
X143700000Y-95637500D03*
X143300000Y-95637500D03*
X142900000Y-95637500D03*
X142500000Y-95637500D03*
X142100000Y-95637500D03*
X141700000Y-95637500D03*
D16*
X141062500Y-95000000D03*
X141062500Y-94600000D03*
X141062500Y-94200000D03*
X141062500Y-93800000D03*
X141062500Y-93400000D03*
X141062500Y-93000000D03*
X141062500Y-92600000D03*
X141062500Y-92200000D03*
X141062500Y-91800000D03*
X141062500Y-91400000D03*
D17*
X144700000Y-94400000D03*
X144700000Y-93200000D03*
X144700000Y-92000000D03*
X143500000Y-94400000D03*
X143500000Y-93200000D03*
X143500000Y-92000000D03*
X142300000Y-94400000D03*
X142300000Y-93200000D03*
X142300000Y-92000000D03*
G04 #@! TD*
D18*
G04 #@! TO.C,U3*
X126250000Y-120950000D03*
X126250000Y-121450000D03*
X126250000Y-121950000D03*
X126250000Y-122450000D03*
D19*
X125512500Y-123187500D03*
X125012500Y-123187500D03*
X124512500Y-123187500D03*
X124012500Y-123187500D03*
D18*
X123275000Y-122450000D03*
X123275000Y-121950000D03*
X123275000Y-121450000D03*
X123275000Y-120950000D03*
D19*
X124012500Y-120212500D03*
X124512500Y-120212500D03*
X125012500Y-120212500D03*
X125512500Y-120212500D03*
D20*
X124312500Y-122150000D03*
X125212500Y-122150000D03*
X124312500Y-121250000D03*
X125212500Y-121250000D03*
G04 #@! TD*
D21*
G04 #@! TO.C,U5*
X147045000Y-116190000D03*
X147045000Y-117460000D03*
X147045000Y-118730000D03*
X147045000Y-120000000D03*
X142095000Y-120000000D03*
X142095000Y-118730000D03*
X142095000Y-117460000D03*
X142095000Y-116190000D03*
D22*
X145140000Y-118845000D03*
X145140000Y-117345000D03*
X144000000Y-118845000D03*
X144000000Y-117345000D03*
G04 #@! TD*
D23*
G04 #@! TO.C,D1*
X125375000Y-98000000D03*
X127125000Y-98000000D03*
G04 #@! TD*
D24*
G04 #@! TO.C,R7*
X125500000Y-127812500D03*
X125500000Y-125987500D03*
G04 #@! TD*
D25*
G04 #@! TO.C,Q1*
X129500000Y-115700000D03*
X130450000Y-117575000D03*
X128550000Y-117575000D03*
G04 #@! TD*
D26*
G04 #@! TO.C,R8*
X128687500Y-122300000D03*
X130512500Y-122300000D03*
G04 #@! TD*
D27*
G04 #@! TO.C,Q2*
X128400000Y-127600000D03*
X127450000Y-125725000D03*
X129350000Y-125725000D03*
G04 #@! TD*
D28*
G04 #@! TO.C,D12*
X151100000Y-124300000D03*
X146100000Y-124300000D03*
G04 #@! TD*
D29*
G04 #@! TO.C,L1*
X137950000Y-124300000D03*
X141650000Y-124300000D03*
G04 #@! TD*
D10*
G04 #@! TO.C,D5*
X110200000Y-119450000D03*
X110200000Y-120850000D03*
G04 #@! TD*
D30*
G04 #@! TO.C,C8*
X150750000Y-82275000D03*
X150750000Y-84000000D03*
G04 #@! TD*
G04 #@! TO.C,C7*
X148750000Y-82275000D03*
X148750000Y-84000000D03*
G04 #@! TD*
D31*
G04 #@! TO.C,C31*
X139282500Y-68125000D03*
X139282500Y-66400000D03*
G04 #@! TD*
D32*
G04 #@! TO.C,U1*
X121350000Y-93750000D03*
X121350000Y-94250000D03*
X121350000Y-94750000D03*
X121350000Y-95250000D03*
X121350000Y-95750000D03*
X125650000Y-95750000D03*
X125650000Y-95250000D03*
X125650000Y-94750000D03*
X125650000Y-94250000D03*
X125650000Y-93750000D03*
G04 #@! TD*
D33*
G04 #@! TO.C,D2*
X119525000Y-98000000D03*
X121275000Y-98000000D03*
G04 #@! TD*
D34*
G04 #@! TO.C,R2*
X134912500Y-89750000D03*
X133087500Y-89750000D03*
G04 #@! TD*
D30*
G04 #@! TO.C,C34*
X127050000Y-70450000D03*
X127050000Y-72175000D03*
G04 #@! TD*
D24*
G04 #@! TO.C,R16*
X107700000Y-71612500D03*
X107700000Y-69787500D03*
G04 #@! TD*
D35*
G04 #@! TO.C,C13*
X134862500Y-93700000D03*
X133137500Y-93700000D03*
G04 #@! TD*
D36*
G04 #@! TO.C,R14*
X107700000Y-76587500D03*
X107700000Y-78412500D03*
G04 #@! TD*
D34*
G04 #@! TO.C,R3*
X128600000Y-84500000D03*
X126775000Y-84500000D03*
G04 #@! TD*
D36*
G04 #@! TO.C,R27*
X121182500Y-68625000D03*
X121182500Y-70450000D03*
G04 #@! TD*
D37*
G04 #@! TO.C,C19*
X152775000Y-88500000D03*
X154500000Y-88500000D03*
G04 #@! TD*
D30*
G04 #@! TO.C,C23*
X146875000Y-102300000D03*
X146875000Y-104025000D03*
G04 #@! TD*
G04 #@! TO.C,C3*
X144950000Y-102312500D03*
X144950000Y-104037500D03*
G04 #@! TD*
D37*
G04 #@! TO.C,C12*
X125675000Y-131000000D03*
X127400000Y-131000000D03*
G04 #@! TD*
D34*
G04 #@! TO.C,R5*
X121317500Y-99865000D03*
X119492500Y-99865000D03*
G04 #@! TD*
D31*
G04 #@! TO.C,C22*
X144750000Y-84000000D03*
X144750000Y-82275000D03*
G04 #@! TD*
D38*
G04 #@! TO.C,D10*
X101505000Y-82500000D03*
X99405000Y-82500000D03*
G04 #@! TD*
D31*
G04 #@! TO.C,C11*
X124900000Y-117462500D03*
X124900000Y-115737500D03*
G04 #@! TD*
D36*
G04 #@! TO.C,R26*
X121182500Y-64487500D03*
X121182500Y-66312500D03*
G04 #@! TD*
D30*
G04 #@! TO.C,C5*
X142800000Y-82275000D03*
X142800000Y-84000000D03*
G04 #@! TD*
D35*
G04 #@! TO.C,C28*
X135545000Y-122000000D03*
X133820000Y-122000000D03*
G04 #@! TD*
D23*
G04 #@! TO.C,D11*
X116987500Y-110750000D03*
X115237500Y-110750000D03*
G04 #@! TD*
D31*
G04 #@! TO.C,C27*
X136600000Y-83962500D03*
X136600000Y-82237500D03*
G04 #@! TD*
D26*
G04 #@! TO.C,R23*
X133770000Y-120000000D03*
X135595000Y-120000000D03*
G04 #@! TD*
D24*
G04 #@! TO.C,R10*
X105600000Y-127362500D03*
X105600000Y-125537500D03*
G04 #@! TD*
D39*
G04 #@! TO.C,SW2*
X124250000Y-133425000D03*
X128400000Y-133425000D03*
X124250000Y-135575000D03*
X128400000Y-135575000D03*
G04 #@! TD*
D35*
G04 #@! TO.C,C20*
X134862500Y-95750000D03*
X133137500Y-95750000D03*
G04 #@! TD*
D36*
G04 #@! TO.C,R20*
X142032500Y-64487500D03*
X142032500Y-66312500D03*
G04 #@! TD*
D24*
G04 #@! TO.C,R6*
X123700000Y-127812500D03*
X123700000Y-125987500D03*
G04 #@! TD*
D30*
G04 #@! TO.C,C9*
X152750000Y-82250000D03*
X152750000Y-83975000D03*
G04 #@! TD*
G04 #@! TO.C,C4*
X121800000Y-126037500D03*
X121800000Y-127762500D03*
G04 #@! TD*
D24*
G04 #@! TO.C,R24*
X116182500Y-70450000D03*
X116182500Y-68625000D03*
G04 #@! TD*
D34*
G04 #@! TO.C,R17*
X117025000Y-108750000D03*
X115200000Y-108750000D03*
G04 #@! TD*
D24*
G04 #@! TO.C,R11*
X105650000Y-78412500D03*
X105650000Y-76587500D03*
G04 #@! TD*
D37*
G04 #@! TO.C,C33*
X153182500Y-120000000D03*
X154907500Y-120000000D03*
G04 #@! TD*
D24*
G04 #@! TO.C,R15*
X107700000Y-120650000D03*
X107700000Y-118825000D03*
G04 #@! TD*
D30*
G04 #@! TO.C,C1*
X150750000Y-102275000D03*
X150750000Y-104000000D03*
G04 #@! TD*
D40*
G04 #@! TO.C,D9*
X100450000Y-115000000D03*
X102550000Y-115000000D03*
G04 #@! TD*
D35*
G04 #@! TO.C,C16*
X116975000Y-106750000D03*
X115250000Y-106750000D03*
G04 #@! TD*
D24*
G04 #@! TO.C,R18*
X136632500Y-70450000D03*
X136632500Y-68625000D03*
G04 #@! TD*
D41*
G04 #@! TO.C,D8*
X110200000Y-77800000D03*
X110200000Y-76400000D03*
G04 #@! TD*
D39*
G04 #@! TO.C,SW3*
X139150000Y-133425000D03*
X143300000Y-133425000D03*
X139150000Y-135575000D03*
X143300000Y-135575000D03*
G04 #@! TD*
D26*
G04 #@! TO.C,R22*
X133770000Y-118000000D03*
X135595000Y-118000000D03*
G04 #@! TD*
D31*
G04 #@! TO.C,C10*
X121750000Y-117475000D03*
X121750000Y-115750000D03*
G04 #@! TD*
D24*
G04 #@! TO.C,R1*
X148750000Y-104050000D03*
X148750000Y-102225000D03*
G04 #@! TD*
D42*
G04 #@! TO.C,U4*
X121600000Y-105450000D03*
X121600000Y-107750000D03*
D43*
X127900000Y-107750000D03*
D42*
X121600000Y-110050000D03*
G04 #@! TD*
D35*
G04 #@! TO.C,C18*
X134862500Y-87750000D03*
X133137500Y-87750000D03*
G04 #@! TD*
D37*
G04 #@! TO.C,C32*
X153182500Y-118000000D03*
X154907500Y-118000000D03*
G04 #@! TD*
D31*
G04 #@! TO.C,C35*
X118682500Y-68125000D03*
X118682500Y-66400000D03*
G04 #@! TD*
D44*
G04 #@! TO.C,Y1*
X140525000Y-104125000D03*
X142725000Y-104125000D03*
X142725000Y-102425000D03*
X140525000Y-102425000D03*
G04 #@! TD*
D36*
G04 #@! TO.C,R13*
X107700000Y-125500000D03*
X107700000Y-127325000D03*
G04 #@! TD*
D31*
G04 #@! TO.C,C26*
X138600000Y-83962500D03*
X138600000Y-82237500D03*
G04 #@! TD*
D30*
G04 #@! TO.C,C29*
X133750000Y-114250000D03*
X133750000Y-115975000D03*
G04 #@! TD*
D26*
G04 #@! TO.C,R12*
X142775000Y-80100000D03*
X144600000Y-80100000D03*
G04 #@! TD*
D35*
G04 #@! TO.C,C17*
X116975000Y-104750000D03*
X115250000Y-104750000D03*
G04 #@! TD*
D26*
G04 #@! TO.C,R4*
X125337500Y-99865000D03*
X127162500Y-99865000D03*
G04 #@! TD*
D10*
G04 #@! TO.C,D7*
X105620000Y-70200000D03*
X105620000Y-71600000D03*
G04 #@! TD*
D26*
G04 #@! TO.C,R9*
X133087500Y-91700000D03*
X134912500Y-91700000D03*
G04 #@! TD*
D39*
G04 #@! TO.C,SW4*
X154725000Y-133425000D03*
X158875000Y-133425000D03*
X154725000Y-135575000D03*
X158875000Y-135575000D03*
G04 #@! TD*
D37*
G04 #@! TO.C,C14*
X140500000Y-131025000D03*
X142225000Y-131025000D03*
G04 #@! TD*
D24*
G04 #@! TO.C,R19*
X136632500Y-66312500D03*
X136632500Y-64487500D03*
G04 #@! TD*
D37*
G04 #@! TO.C,C15*
X155837500Y-131000000D03*
X157562500Y-131000000D03*
G04 #@! TD*
D31*
G04 #@! TO.C,C2*
X138300000Y-104037500D03*
X138300000Y-102312500D03*
G04 #@! TD*
D41*
G04 #@! TO.C,D3*
X110200000Y-126700000D03*
X110200000Y-125300000D03*
G04 #@! TD*
D30*
G04 #@! TO.C,C24*
X136325000Y-102312500D03*
X136325000Y-104037500D03*
G04 #@! TD*
D10*
G04 #@! TO.C,D4*
X110200000Y-71100000D03*
X110200000Y-72500000D03*
G04 #@! TD*
D45*
G04 #@! TO.C,FB1*
X140600000Y-82225000D03*
X140600000Y-83975000D03*
G04 #@! TD*
D30*
G04 #@! TO.C,C30*
X135760000Y-114250000D03*
X135760000Y-115975000D03*
G04 #@! TD*
D36*
G04 #@! TO.C,R21*
X142032500Y-68625000D03*
X142032500Y-70450000D03*
G04 #@! TD*
D30*
G04 #@! TO.C,C25*
X152750000Y-102250000D03*
X152750000Y-103975000D03*
G04 #@! TD*
D46*
G04 #@! TO.C,SW5*
X167630000Y-87615000D03*
X167630000Y-88885000D03*
X175250000Y-88885000D03*
X175250000Y-87615000D03*
G04 #@! TD*
D37*
G04 #@! TO.C,C21*
X152775000Y-90520000D03*
X154500000Y-90520000D03*
G04 #@! TD*
D30*
G04 #@! TO.C,C36*
X129550000Y-70450000D03*
X129550000Y-72175000D03*
G04 #@! TD*
D24*
G04 #@! TO.C,R25*
X116182500Y-66312500D03*
X116182500Y-64487500D03*
G04 #@! TD*
D30*
G04 #@! TO.C,C6*
X146750000Y-82275000D03*
X146750000Y-84000000D03*
G04 #@! TD*
M02*
